<svg xmlns="http://www.w3.org/2000/svg" width="38" height="38" viewBox="0 0 38 38" fill="none">
    <g clip-path="url(#clip0_1879_274)">
        <path d="M31.7656 14.9922C31.7656 14.5304 31.6172 14.151 31.3203 13.8542L29.069 11.6276C28.7556 11.3142 28.3846 11.1576 27.9557 11.1576C27.5269 11.1576 27.1558 11.3142 26.8424 11.6276L16.7487 21.6966L11.1576 16.1055C10.8442 15.7921 10.4731 15.6354 10.0443 15.6354C9.61545 15.6354 9.24436 15.7921 8.93099 16.1055L6.67969 18.332C6.38281 18.6289 6.23438 19.0082 6.23438 19.4701C6.23438 19.9154 6.38281 20.2865 6.67969 20.5833L15.6354 29.5391C15.9488 29.8524 16.3199 30.0091 16.7487 30.0091C17.194 30.0091 17.5734 29.8524 17.8867 29.5391L31.3203 16.1055C31.6172 15.8086 31.7656 15.4375 31.7656 14.9922ZM38 19C38 22.447 37.1506 25.6261 35.4518 28.5371C33.753 31.4481 31.4481 33.753 28.5371 35.4518C25.6261 37.1506 22.447 38 19 38C15.553 38 12.3739 37.1506 9.46289 35.4518C6.55187 33.753 4.24696 31.4481 2.54818 28.5371C0.849393 25.6261 0 22.447 0 19C0 15.553 0.849393 12.3739 2.54818 9.46289C4.24696 6.55187 6.55187 4.24696 9.46289 2.54818C12.3739 0.849393 15.553 0 19 0C22.447 0 25.6261 0.849393 28.5371 2.54818C31.4481 4.24696 33.753 6.55187 35.4518 9.46289C37.1506 12.3739 38 15.553 38 19Z" fill="#75D610"/>
    </g>
    <defs>
        <clipPath id="clip0_1879_274">
            <rect width="38" height="38" fill="white"/>
        </clipPath>
    </defs>
</svg>