<svg xmlns="http://www.w3.org/2000/svg" width="220" height="82" viewBox="0 0 220 82" fill="none">
    <g clip-path="url(#clip0_1945_316)">
        <path d="M41.3925 9.98633C24.0937 9.98633 10.0293 23.8208 10.0293 40.8703C10.0293 57.9198 24.0774 71.7542 41.3762 71.7542C58.675 71.7542 72.7231 57.9198 72.7231 40.8703C72.7231 23.8208 58.6913 9.98633 41.3925 9.98633ZM41.3925 69.8707C25.1392 69.8707 11.9568 56.8806 11.9568 40.7729C11.9568 24.6651 25.1392 11.675 41.4905 11.675C57.8419 11.675 71.0243 24.6651 71.0243 40.7729C70.9262 56.8643 57.7439 69.8707 41.3925 69.8707Z" fill="white"/>
        <path d="M41.3925 9.98633C24.0937 9.98633 10.0293 23.8208 10.0293 40.8703C10.0293 57.9198 24.0774 71.7542 41.3762 71.7542C58.675 71.7542 72.7231 57.9198 72.7231 40.8703C72.7231 23.8208 58.6913 9.98633 41.3925 9.98633ZM41.3925 69.8707C25.1392 69.8707 11.9568 56.8806 11.9568 40.7729C11.9568 24.6651 25.1392 11.675 41.4905 11.675C57.8419 11.675 71.0243 24.6651 71.0243 40.7729C70.9262 56.8643 57.7439 69.8707 41.3925 69.8707Z" fill="white"/>
        <path d="M12.1367 55.6465V70.0493H26.4789C20.2716 66.8504 15.2894 61.8655 12.1367 55.6465Z" fill="white"/>
        <path d="M26.0051 12.0479H12.1367V26.3532C15.0934 20.329 19.9775 15.3441 25.9888 12.0479" fill="white"/>
        <path d="M70.926 25.8988V12.1455H57.3516C63.1832 15.2469 67.8713 20.0532 70.926 25.8988Z" fill="white"/>
        <path d="M56.9766 70.0491H71.0247V56.1172C67.872 62.0439 62.9878 66.9477 56.9766 70.0491Z" fill="white"/>
        <path d="M10.2257 30.9814L0 41.0488L10.0297 51.0349C7.92248 44.5399 8.02049 37.4765 10.2257 30.9814Z" fill="white"/>
        <path d="M31.4441 72.1277L41.5718 82.0164L51.6995 72.0303C45.1001 74.1087 38.0271 74.1899 31.4277 72.1277H31.4441Z" fill="white"/>
        <path d="M51.243 9.51525L41.5727 0L31.543 9.88871C34.8916 8.76832 38.42 8.2 41.9647 8.2C45.1174 8.2 48.27 8.67089 51.243 9.51525Z" fill="white"/>
        <path d="M73.1152 50.8397L83.0633 41.0485L73.5073 31.5332C74.373 34.5372 74.8467 37.6548 74.8467 40.7562C74.7487 44.1498 74.275 47.5273 73.1316 50.8235" fill="white"/>
        <path d="M41.3928 13.3633C26.0052 13.3633 13.5742 25.6065 13.5742 40.7562C13.5742 55.9059 26.0052 68.149 41.3928 68.149C56.7803 68.149 69.2113 55.9059 69.2113 40.7562C69.2113 25.6065 56.7803 13.4607 41.3928 13.3633ZM62.5139 51.3918L50.9487 47.6247L58.1198 57.2373L48.2698 50.174L52.0922 61.5728L44.9211 51.8789V63.8298L41.1967 52.431L37.4723 63.8298L37.7664 51.8789L30.6933 61.5728L34.5157 50.174L24.6657 57.2373L31.8368 47.6247L20.2716 51.3918L30.1216 44.4259H17.9847L29.5499 40.7562L17.9847 37.0865L30.1216 37.1839L20.2716 30.1205L31.8368 33.8876L24.6657 24.1938L34.5157 31.2571L30.6933 19.8583L37.7664 29.6496L37.6684 17.6987L41.3928 29.0813L45.1171 17.6987V29.6496L52.1902 19.9558L48.3678 31.3383L58.2178 24.275L51.0467 33.8714L62.6119 30.1043L52.7619 37.1676H64.8988L53.3337 40.8373L64.8988 44.507H52.6639L62.5139 51.3756V51.3918Z" fill="white"/>
        <path d="M219.901 31.777C219.901 30.4455 219.477 29.1303 218.643 28.0424C217.549 26.7921 216.03 26.0451 214.429 25.8828H191.38C191.037 25.8828 190.711 25.8016 190.449 25.558C190.188 25.3144 190.106 24.9735 190.106 24.6487V22.0832C190.106 21.7584 190.188 21.4174 190.449 21.1739C190.711 20.9303 191.037 20.8491 191.38 20.8491H219.983V18.6083C219.983 17.358 219.558 16.124 218.807 15.1335C217.794 13.802 216.193 12.9739 214.511 12.8115H188.26C185.059 12.5679 182.282 14.8899 182.037 18.04V27.9774C182.037 29.5525 182.706 30.9651 183.801 32.118C184.895 33.1897 186.316 33.7743 187.836 33.8554H210.639C210.982 33.8554 211.309 34.0178 211.57 34.2614C211.734 34.5049 211.913 34.7647 211.913 35.0083V37.7362C211.913 38.061 211.832 38.3208 211.57 38.5644C211.309 38.8079 210.982 38.9865 210.639 38.9865H179.766L165.375 12.9576H155.362L150.314 21.9857L145.267 12.9576H135.253L120.356 39.7172L109.836 27.7014L124.554 13.0388H113.691L99.3815 27.2143V12.8927H90.3809V46.8618H99.3815V27.5552L116.468 46.943H126.481L140.284 22.002L145.332 31.0301L136.576 46.943H146.59L160.393 22.002L174.196 46.943H214.331C216.013 46.7806 217.533 46.0337 218.627 44.7022C219.46 43.4519 219.803 42.0554 219.803 40.6428V31.777H219.885H219.901Z" fill="white"/>
        <path d="M94.9227 63.0021L93.0605 61.9466C91.9007 61.2809 91.0676 60.6151 90.5612 59.9656C90.0712 59.3161 89.8262 58.553 89.8262 57.7086C89.8262 56.4421 90.2999 55.4029 91.231 54.6072C92.1784 53.8116 93.3872 53.4219 94.89 53.4219C96.3928 53.4219 97.6343 53.7953 98.8268 54.5585V57.189C97.5853 56.0686 96.2622 55.5165 94.841 55.5165C94.0406 55.5165 93.3872 55.6951 92.8645 56.0524C92.3418 56.3934 92.0967 56.848 92.0967 57.4001C92.0967 57.8872 92.2764 58.3419 92.6685 58.764C93.0442 59.1862 93.6486 59.6246 94.498 60.0955L96.3765 61.1347C98.4674 62.3039 99.5128 63.7977 99.5128 65.6163C99.5128 66.9153 99.0555 67.9708 98.1244 68.7664C97.2096 69.5783 96.0171 69.9842 94.547 69.9842C92.8645 69.9842 91.3127 69.4971 89.9242 68.5229V65.5839C91.2473 67.1589 92.7828 67.9545 94.5143 67.9545C95.2821 67.9545 95.9191 67.7597 96.4255 67.3538C96.9482 66.9478 97.1933 66.4282 97.1933 65.8274C97.1933 64.8369 96.4418 63.9114 94.939 63.0345" fill="white"/>
        <path d="M110.588 53.3893C113.234 53.3893 115.439 54.1849 117.187 55.76C118.951 57.335 119.833 59.316 119.833 61.7029C119.833 64.0899 118.935 66.0546 117.171 67.6134C115.39 69.1723 113.152 69.9517 110.457 69.9517C107.762 69.9517 105.72 69.1723 104.005 67.6134C102.29 66.0546 101.424 64.0899 101.424 61.7354C101.424 59.381 102.29 57.335 104.021 55.7437C105.753 54.1687 107.941 53.373 110.588 53.373M110.686 55.5651C108.726 55.5651 107.108 56.1497 105.851 57.3026C104.593 58.4554 103.956 59.933 103.956 61.7354C103.956 63.5378 104.593 64.9342 105.851 66.0871C107.125 67.24 108.709 67.8245 110.604 67.8245C112.499 67.8245 114.116 67.24 115.39 66.0546C116.681 64.8693 117.318 63.4079 117.318 61.6542C117.318 59.9006 116.681 58.5041 115.39 57.335C114.116 56.1659 112.548 55.5814 110.686 55.5814" fill="white"/>
        <path d="M122.496 53.6328H131.627V55.6788H124.946V60.1928H131.627V62.255H124.946V69.773H122.496V53.6328Z" fill="white"/>
        <path d="M133.555 53.6006H147.848V55.6628H141.886V69.7733H139.419V55.6628H133.555V53.6006Z" fill="white"/>
        <path d="M173.233 53.6328H175.683L168.757 69.838H168.234L162.631 56.718L156.979 69.838H156.457L149.547 53.6328H152.013L156.734 64.7556L161.471 53.6328H163.807L168.577 64.7556L173.233 53.6328Z" fill="white"/>
        <path d="M183.051 53.5352H184.782L192.443 69.7728H189.928L187.641 64.9827H180.355L178.199 69.7728H175.684L183.034 53.5352H183.051ZM186.644 62.9367L183.884 57.0912L181.319 62.9367H186.644Z" fill="white"/>
        <path d="M194.402 69.773V53.6328H198.698C200.43 53.6328 201.802 54.0388 202.815 54.8506C203.828 55.6625 204.35 56.7504 204.35 58.1306C204.35 59.0724 204.105 59.8843 203.599 60.5663C203.109 61.2483 202.39 61.7679 201.459 62.1089C202.014 62.4498 202.537 62.9045 203.06 63.489C203.583 64.0736 204.318 65.0966 205.265 66.558C205.87 67.4835 206.343 68.1655 206.703 68.6201L207.617 69.773H204.693L203.942 68.7176C203.942 68.7176 203.86 68.6201 203.795 68.5227L203.321 67.8895L202.554 66.7041L201.737 65.4376C201.23 64.7718 200.757 64.2522 200.332 63.8463C199.907 63.4566 199.532 63.1805 199.189 63.0019C198.845 62.8233 198.29 62.7421 197.49 62.7421H196.853V69.773H194.402ZM197.588 55.5976H196.853V60.6962H197.784C199.025 60.6962 199.875 60.5988 200.332 60.3877C200.806 60.1928 201.165 59.8843 201.41 59.4784C201.671 59.0724 201.802 58.6015 201.802 58.0982C201.802 57.5948 201.655 57.1239 201.377 56.718C201.083 56.2958 200.691 56.0035 200.169 55.8411C199.646 55.6788 198.796 55.5813 197.588 55.5813" fill="white"/>
        <path d="M209.496 53.6328H219.215V55.6788H211.963V60.615H218.97V62.6772H211.963V67.6946H219.444V69.7568H209.496V53.6328Z" fill="white"/>
    </g>
    <defs>
        <clipPath id="clip0_1945_316">
            <rect width="220" height="82" fill="white"/>
        </clipPath>
    </defs>
</svg>