<svg xmlns="http://www.w3.org/2000/svg" width="16" height="16" viewBox="0 0 16 16" fill="none">
    <path d="M4.1435 5.30774V15.0713H0.89227V5.30774H4.1435ZM4.3504 2.29296C4.35697 2.77244 4.19112 3.1731 3.85286 3.49494C3.5146 3.81677 3.06961 3.97769 2.51789 3.97769H2.49818C1.95959 3.97769 1.5261 3.81677 1.19769 3.49494C0.869282 3.1731 0.705078 2.77244 0.705078 2.29296C0.705078 1.80692 0.874208 1.40462 1.21247 1.08607C1.55073 0.767512 1.99243 0.608235 2.53759 0.608235C3.08275 0.608235 3.51953 0.767512 3.84794 1.08607C4.17634 1.40462 4.34383 1.80692 4.3504 2.29296ZM15.8381 9.47523V15.0713H12.5967V9.84961C12.5967 9.15996 12.4637 8.61973 12.1977 8.22892C11.9317 7.83812 11.5162 7.64272 10.9514 7.64272C10.5376 7.64272 10.1911 7.75602 9.91197 7.98262C9.63283 8.20922 9.42429 8.49001 9.28636 8.82498C9.21411 9.02203 9.17798 9.28804 9.17798 9.62301V15.0713H5.9366C5.94974 12.4506 5.95631 10.3258 5.95631 8.69691C5.95631 7.06801 5.95303 6.09592 5.94646 5.78065L5.9366 5.30774H9.17798V6.72646H9.15828C9.28964 6.51628 9.42429 6.33237 9.56222 6.17474C9.70015 6.0171 9.8857 5.84633 10.1189 5.66242C10.352 5.47851 10.6378 5.33566 10.976 5.23385C11.3143 5.13204 11.6903 5.08114 12.1041 5.08114C13.2272 5.08114 14.1304 5.45388 14.8135 6.19937C15.4965 6.94485 15.8381 8.03681 15.8381 9.47523Z" fill="#626D79"/>
</svg>