<svg xmlns="http://www.w3.org/2000/svg" width="166" height="80" viewBox="0 0 166 80" fill="none">
    <g clip-path="url(#clip0_1887_502)">
        <path d="M29.1646 7.05957C24.845 7.05957 20.6224 8.34075 17.0307 10.7411C13.4391 13.1414 10.6398 16.5531 8.98673 20.5447C7.33368 24.5364 6.90117 28.9286 7.74388 33.1661C8.5866 37.4036 10.6667 41.296 13.7211 44.351C16.7755 47.4061 20.6671 49.4866 24.9037 50.3295C29.1404 51.1724 33.5317 50.7398 37.5225 49.0864C41.5133 47.433 44.9243 44.6331 47.3242 41.0407C49.724 37.4484 51.0049 33.2249 51.0049 28.9044C51.0014 23.1119 48.6992 17.5576 44.6041 13.4617C40.5091 9.36573 34.9559 7.0631 29.1646 7.05957ZM29.1646 49.4172C25.0981 49.404 21.1266 48.1859 17.7518 45.9166C14.377 43.6473 11.7502 40.4287 10.2031 36.6672C8.65602 32.9056 8.25805 28.7699 9.05946 24.7823C9.86086 20.7947 11.8257 17.134 14.7058 14.2626C17.5859 11.3911 21.2522 9.43774 25.2416 8.64906C29.2309 7.86038 33.3645 8.2718 37.1203 9.83134C40.876 11.3909 44.0855 14.0286 46.3434 17.4114C48.6013 20.7942 49.8064 24.7704 49.8064 28.8378C49.7888 34.3019 47.6062 39.5362 43.737 43.3937C39.8679 47.2512 34.6276 49.4172 29.1646 49.4172Z" fill="white"/>
        <path d="M165.801 23.7096C165.807 22.6279 165.456 21.5745 164.802 20.7126C163.952 19.7338 162.762 19.1148 161.473 18.981H143.228C143.094 18.9933 142.958 18.9759 142.832 18.93C142.705 18.8842 142.59 18.811 142.494 18.7157C142.399 18.6203 142.326 18.5052 142.28 18.3784C142.234 18.2516 142.217 18.1163 142.229 17.982V15.9174C142.217 15.7832 142.234 15.6478 142.28 15.5211C142.326 15.3943 142.399 15.2791 142.494 15.1838C142.59 15.0885 142.705 15.0153 142.832 14.9694C142.958 14.9235 143.094 14.9061 143.228 14.9184H165.867V13.1202C165.864 12.112 165.538 11.1313 164.935 10.323C164.527 9.79594 164.015 9.35841 163.431 9.03761C162.847 8.71681 162.203 8.5196 161.539 8.45822H140.764C140.165 8.40814 139.562 8.47712 138.989 8.66119C138.416 8.84526 137.886 9.14079 137.428 9.53076C136.97 9.92073 136.593 10.3974 136.32 10.9335C136.047 11.4695 135.883 12.0542 135.837 12.654V20.646C135.85 21.8734 136.334 23.0488 137.189 23.929C138.044 24.8093 139.205 25.3268 140.431 25.3746H158.476C158.754 25.3863 159.017 25.5057 159.209 25.7076C159.351 25.8788 159.444 26.0864 159.475 26.307V28.5048C159.482 28.6285 159.461 28.7522 159.415 28.8672C159.369 28.9822 159.299 29.0859 159.209 29.1708C159.017 29.3727 158.754 29.4922 158.476 29.5038H134.039L122.653 8.59142H114.729L110.734 15.8508L106.739 8.59142H98.8148L87.029 30.1032L78.7057 20.4462L90.3583 8.65802H81.7687L70.449 20.0466V8.52482H63.3242V35.8308H70.449V20.313L83.966 35.8974H91.8898L102.81 15.8508L106.805 23.1102L99.8802 35.8974H107.804L118.724 15.8508L129.644 35.8974H161.406C162.064 35.8409 162.703 35.6525 163.287 35.3436C163.87 35.0347 164.385 34.6115 164.802 34.0992C165.431 33.1287 165.756 31.9923 165.734 30.8358V23.7096H165.801Z" fill="white"/>
        <path d="M63.1914 39.8271H71.3149V41.0259H67.919V49.4842H66.5207V41.0259H63.1914V39.8271Z" fill="white"/>
        <path d="M73.3125 39.8271H78.8392V41.0926H74.7108V44.0896H78.706V45.2884H74.7108V48.2854H78.9723V49.4842H73.3125V39.8271Z" fill="white"/>
        <path d="M89.4912 47.2858V48.8176C88.4131 49.4097 87.1902 49.6866 85.9622 49.6168C85.01 49.6337 84.0696 49.4043 83.2321 48.9508C82.4778 48.5296 81.8554 47.907 81.4343 47.1526C80.9828 46.4111 80.7518 45.5564 80.7684 44.6884C80.7578 44.0249 80.889 43.3668 81.1531 42.7581C81.4172 42.1493 81.8082 41.604 82.2999 41.1586C83.3127 40.2158 84.6452 39.6922 86.0287 39.6934C87.1995 39.7534 88.3499 40.0241 89.4247 40.4926V41.9578C88.4131 41.3577 87.27 41.0147 86.0953 40.9588C85.5814 40.9379 85.0685 41.0216 84.5878 41.2048C84.1071 41.3879 83.6685 41.6668 83.2987 42.0244C82.9504 42.3682 82.6739 42.7778 82.4851 43.2294C82.2964 43.681 82.1992 44.1656 82.1992 44.6551C82.1992 45.1445 82.2964 45.6291 82.4851 46.0807C82.6739 46.5323 82.9504 46.9419 83.2987 47.2858C83.6744 47.6308 84.1155 47.897 84.5959 48.0686C85.0762 48.2402 85.5861 48.3137 86.0953 48.2848C87.3027 48.306 88.4876 47.9574 89.4912 47.2858Z" fill="white"/>
        <path d="M98.6805 39.8271H100.079V49.5508H98.6805V45.2884H93.2204V49.4842H91.8887V39.8271H93.287V44.023H98.7471V39.8271H98.6805Z" fill="white"/>
        <path d="M110.601 39.8271H111.933V49.5508H110.734L104.275 42.0916V49.5508H102.943V39.8271H104.075L110.601 47.353V39.8271Z" fill="white"/>
        <path d="M119.456 39.6938C120.14 39.6656 120.822 39.7749 121.463 40.0151C122.103 40.2554 122.689 40.6217 123.185 41.0924C123.68 41.5463 124.068 42.1042 124.321 42.7261C124.575 43.348 124.687 44.0183 124.65 44.6888C124.661 45.3523 124.53 46.0104 124.265 46.6191C124.001 47.2278 123.61 47.7731 123.119 48.2186C122.084 49.1608 120.722 49.6625 119.323 49.6172C118.651 49.639 117.98 49.5266 117.351 49.2865C116.723 49.0463 116.148 48.6833 115.661 48.2186C115.173 47.774 114.788 47.2272 114.535 46.6172C114.282 46.0071 114.166 45.3487 114.196 44.6888C114.167 44.0192 114.284 43.3514 114.536 42.7308C114.789 42.1101 115.173 41.5513 115.661 41.0924C116.696 40.1502 118.058 39.6485 119.456 39.6938ZM119.523 41.0258C119.018 40.9996 118.514 41.0811 118.043 41.2648C117.573 41.4485 117.146 41.7303 116.793 42.0914C116.428 42.4279 116.143 42.8418 115.959 43.3027C115.774 43.7637 115.695 44.26 115.728 44.7554C115.711 45.2391 115.798 45.7208 115.981 46.1686C116.165 46.6164 116.442 47.02 116.793 47.3528C117.518 48.0255 118.467 48.4052 119.456 48.4184C119.959 48.4292 120.459 48.3406 120.928 48.1577C121.396 47.9749 121.824 47.7013 122.186 47.3528C122.551 47.0163 122.836 46.6024 123.021 46.1415C123.205 45.6805 123.284 45.1842 123.252 44.6888C123.255 44.2013 123.16 43.7183 122.972 43.2682C122.785 42.8181 122.51 42.4102 122.162 42.0687C121.814 41.7271 121.401 41.4588 120.948 41.2797C120.495 41.1005 120.01 41.0142 119.523 41.0258Z" fill="white"/>
        <path d="M127.113 39.8271H128.512V48.2854H132.906V49.5508H127.18L127.113 39.8271Z" fill="white"/>
        <path d="M139.499 39.6938C140.183 39.6656 140.865 39.7749 141.505 40.0151C142.146 40.2554 142.732 40.6217 143.228 41.0924C143.723 41.5463 144.111 42.1042 144.364 42.7261C144.618 43.348 144.73 44.0183 144.693 44.6888C144.717 45.3542 144.592 46.0165 144.327 46.6273C144.062 47.2381 143.664 47.7818 143.162 48.2186C142.127 49.1608 140.765 49.6625 139.366 49.6172C138.693 49.639 138.023 49.5266 137.394 49.2865C136.766 49.0463 136.191 48.6833 135.704 48.2186C135.215 47.774 134.831 47.2272 134.578 46.6172C134.325 46.0071 134.209 45.3487 134.239 44.6888C134.21 44.0192 134.326 43.3514 134.579 42.7308C134.832 42.1101 135.216 41.5513 135.704 41.0924C136.751 40.1701 138.104 39.6714 139.499 39.6938ZM139.566 41.0258C139.061 40.9996 138.557 41.0811 138.086 41.2648C137.616 41.4485 137.189 41.7303 136.836 42.0914C136.471 42.4279 136.186 42.8418 136.002 43.3027C135.817 43.7637 135.738 44.26 135.771 44.7554C135.754 45.2391 135.84 45.7208 136.024 46.1686C136.208 46.6164 136.485 47.02 136.836 47.3528C137.578 48.0411 138.554 48.4219 139.566 48.4184C140.069 48.4292 140.569 48.3406 141.037 48.1577C141.506 47.9749 141.933 47.7013 142.296 47.3528C142.661 47.0163 142.946 46.6024 143.13 46.1415C143.315 45.6805 143.394 45.1842 143.361 44.6888C143.364 43.7161 142.981 42.7821 142.296 42.0914C141.943 41.7303 141.516 41.4485 141.046 41.2648C140.575 41.0811 140.071 40.9996 139.566 41.0258Z" fill="white"/>
        <path d="M152.417 44.7549H155.679V48.8841C154.576 49.4078 153.371 49.6807 152.15 49.6833C150.731 49.7293 149.349 49.2286 148.288 48.2847C147.824 47.8219 147.455 47.2718 147.203 46.666C146.952 46.0603 146.822 45.4108 146.822 44.7549C146.822 44.099 146.952 43.4495 147.203 42.8438C147.455 42.238 147.824 41.688 148.288 41.2251C149.301 40.2823 150.634 39.7588 152.017 39.7599C152.534 39.7564 153.05 39.8236 153.549 39.9597C154.184 40.1414 154.807 40.3638 155.413 40.6257V41.9577C154.379 41.2977 153.177 40.9508 151.951 40.9587C150.961 40.9719 150.012 41.3516 149.287 42.0243C148.583 42.7458 148.19 43.7137 148.19 44.7216C148.19 45.7295 148.583 46.6974 149.287 47.4189C150.046 48.1231 151.049 48.5051 152.084 48.4845C152.769 48.4811 153.447 48.3454 154.081 48.0849L154.215 48.0183V46.0203H152.35L152.417 44.7549Z" fill="white"/>
        <path d="M164.202 39.8271H165.867L162.271 44.4226V49.5508H160.873V44.4226L157.277 39.8271H158.942L161.539 43.1572L164.202 39.8271Z" fill="white"/>
        <path d="M3.06298 76.9234H0V67.8658H2.39711C2.98542 67.8513 3.57161 67.9415 4.12836 68.1322C4.50811 68.3055 4.83124 68.5825 5.06057 68.9314C5.26298 69.2997 5.37696 69.7101 5.3935 70.1302C5.39896 70.5597 5.26588 70.9795 5.014 71.3274C4.76213 71.6753 4.40487 71.9327 3.99519 72.0616C4.59583 72.162 5.15252 72.4404 5.59326 72.8608C5.79055 73.063 5.94525 73.3028 6.04819 73.5659C6.15112 73.829 6.20021 74.1101 6.19254 74.3926C6.18468 74.835 6.07049 75.269 5.85961 75.658C5.60132 76.0487 5.22949 76.3509 4.79422 76.5238C4.25579 76.789 3.66318 76.9258 3.06298 76.9234ZM2.39711 68.998H1.33173V71.7286H2.13077C2.38929 71.766 2.65274 71.7499 2.90476 71.6811C3.15677 71.6124 3.39195 71.4925 3.59567 71.329C3.88155 71.0464 4.04835 70.6651 4.06177 70.2634C4.06177 69.3976 3.52908 68.998 2.39711 68.998ZM2.53028 72.8608H1.33173V75.7246H2.59687C3.07182 75.7565 3.54819 75.6885 3.99519 75.5248C4.24134 75.4131 4.45219 75.2362 4.60481 75.0131C4.75742 74.79 4.84597 74.5293 4.86081 74.2594C4.86777 74.1256 4.84778 73.9919 4.80203 73.866C4.75627 73.7402 4.68569 73.6248 4.59446 73.5268C4.43689 73.281 4.20294 73.0938 3.9286 72.994C3.46622 72.9166 2.99895 72.8721 2.53028 72.8608Z" fill="white"/>
        <path d="M8.589 70.9293V72.2613L8.65559 72.1281C9.25487 71.1957 9.78756 70.7295 10.3868 70.7295C10.9158 70.7834 11.4098 71.0188 11.7852 71.3955L11.1859 72.4611C11.0456 72.2973 10.8722 72.1651 10.677 72.0732C10.4819 71.9814 10.2695 71.932 10.0539 71.9283C9.85598 71.9255 9.66058 71.9729 9.48592 72.0661C9.31127 72.1592 9.16305 72.2951 9.05511 72.4611C8.79437 72.8315 8.65479 73.2735 8.65559 73.7265V76.8567H7.45703V70.8627L8.589 70.9293Z" fill="white"/>
        <path d="M13.1837 68.3987C13.3804 68.3937 13.5714 68.4653 13.7164 68.5985C13.8373 68.7245 13.9083 68.8902 13.9161 69.0647C13.9185 69.1522 13.9018 69.2392 13.8673 69.3197C13.8329 69.4002 13.7813 69.4722 13.7164 69.5309C13.5714 69.664 13.3804 69.7357 13.1837 69.7307C13.0112 69.7183 12.8489 69.6442 12.7266 69.5219C12.6043 69.3995 12.5302 69.2372 12.5178 69.0647C12.5154 68.9772 12.5321 68.8902 12.5666 68.8097C12.6011 68.7292 12.6526 68.6571 12.7176 68.5985C12.853 68.4926 13.0136 68.4238 13.1837 68.3987ZM12.5844 70.9295H13.7829V76.9235H12.5844V70.9295Z" fill="white"/>
        <path d="M15.1811 72.9932C15.1855 72.7065 15.2466 72.4236 15.3609 72.1607C15.4752 71.8978 15.6404 71.6601 15.847 71.4614C16.4011 71.0479 17.0903 70.8577 17.778 70.9286H20.2417V71.861H19.0431C19.2354 72.0547 19.393 72.28 19.5092 72.527C19.5855 72.7414 19.6303 72.9657 19.6424 73.193C19.6569 73.5244 19.5635 73.8516 19.3761 74.1254C19.2257 74.409 18.9938 74.641 18.7102 74.7914C18.2637 74.9856 17.7936 75.12 17.3119 75.191C16.8458 75.2576 16.646 75.3908 16.646 75.6572C16.6585 75.7307 16.6895 75.7999 16.7361 75.8582C16.7827 75.9164 16.8434 75.9619 16.9124 75.9902C17.2105 76.1183 17.5238 76.2078 17.8446 76.2566C18.3263 76.3276 18.7964 76.462 19.2429 76.6562C19.4709 76.7412 19.676 76.878 19.8422 77.0558C19.9869 77.1902 20.0984 77.3565 20.1677 77.5414C20.2371 77.7264 20.2624 77.9249 20.2417 78.1214C20.2454 78.3879 20.1798 78.6507 20.0514 78.8842C19.9231 79.1177 19.7362 79.3138 19.5092 79.4534C18.9004 79.8001 18.2123 79.9836 17.5117 79.9862C16.7838 80.0397 16.0586 79.8525 15.4475 79.4534C15.212 79.3176 15.0151 79.1241 14.8753 78.891C14.7355 78.6579 14.6574 78.3931 14.6484 78.1214C14.6484 77.3222 15.1811 76.7894 16.1133 76.5896C15.7138 76.3232 15.5141 76.0568 15.5141 75.857C15.5328 75.6523 15.6279 75.4621 15.7804 75.3242C15.9642 75.1492 16.1961 75.0333 16.4463 74.9912C16.075 74.803 15.7615 74.518 15.5388 74.1663C15.3161 73.8146 15.1925 73.4093 15.1811 72.9932ZM17.1121 77.189C16.7608 77.1826 16.4148 77.2749 16.1133 77.4554C15.991 77.5178 15.8887 77.6133 15.8181 77.7311C15.7474 77.8488 15.7113 77.9841 15.7138 78.1214C15.7138 78.7208 16.2465 79.0538 17.3785 79.0538C17.7866 79.058 18.1923 78.9903 18.577 78.854C18.7049 78.7987 18.8122 78.7048 18.8839 78.5853C18.9556 78.4658 18.988 78.3269 18.9766 78.188C18.9638 78.0367 18.9063 77.8926 18.8115 77.774C18.7166 77.6554 18.5887 77.5677 18.4439 77.522C18.0465 77.2725 17.5801 77.1558 17.1121 77.189ZM17.3785 71.9276C17.0788 71.9293 16.7919 72.0492 16.58 72.2611C16.3681 72.4731 16.2483 72.76 16.2465 73.0598C16.2572 73.3577 16.3755 73.6416 16.5794 73.859C16.6919 73.9694 16.8292 74.0512 16.9798 74.0975C17.1305 74.1439 17.29 74.1534 17.4451 74.1254C17.6049 74.1359 17.765 74.1116 17.9145 74.0541C18.0639 73.9966 18.1991 73.9073 18.3107 73.7924C18.5133 73.5927 18.6327 73.3238 18.6451 73.0396C18.6574 72.7554 18.5618 72.4771 18.3773 72.2606L18.3107 72.194C18.024 72.036 17.7053 71.945 17.3785 71.9276Z" fill="white"/>
        <path d="M21.1738 67.7988H22.3724V71.6616C22.5827 71.3694 22.8648 71.1363 23.1913 70.9846C23.5178 70.833 23.8779 70.768 24.2368 70.7958C24.6101 70.7808 24.9799 70.8732 25.3022 71.0622C25.6115 71.2606 25.864 71.536 26.0346 71.8614C26.2273 72.3475 26.296 72.874 26.2344 73.3932V76.7898H25.0358V73.0602C25.0596 72.6762 24.9411 72.2968 24.7029 71.9946C24.5992 71.8657 24.4671 71.7626 24.317 71.6933C24.1668 71.624 24.0026 71.5903 23.8373 71.595C23.5789 71.5891 23.3244 71.6586 23.1048 71.7948C22.8303 71.9809 22.5836 72.2051 22.3724 72.4608V76.7232H21.1738V67.7988Z" fill="white"/>
        <path d="M26.9668 71.8619L29.1641 69.6641V70.9295H31.0286V71.9951H29.1641V74.9255C29.1641 75.5915 29.4305 75.9245 30.0298 75.9245C30.5033 75.9254 30.9666 75.7864 31.3615 75.5249V76.5905C30.9183 76.8537 30.412 76.9918 29.8966 76.9901C29.4113 76.9983 28.9391 76.8329 28.5649 76.5239C28.442 76.4451 28.3484 76.3281 28.2985 76.1909C28.2319 76.0577 28.1654 75.8579 28.0988 75.7247C28.0414 75.3502 28.0191 74.9711 28.0322 74.5925V71.9285H26.9668V71.8619Z" fill="white"/>
        <path d="M43.2815 67.7988H44.4801V76.8564H43.1484V69.7968L40.3517 73.3266H40.0854L37.2888 69.7968V76.8564H35.957V67.7988H37.2888L40.2852 71.5284L43.2815 67.7988Z" fill="white"/>
        <path d="M46.877 68.3985C47.0607 68.3962 47.2384 68.4636 47.3744 68.5872C47.5103 68.7108 47.5943 68.8814 47.6095 69.0645C47.6118 69.152 47.5952 69.239 47.5607 69.3195C47.5262 69.4 47.4747 69.472 47.4097 69.5307C47.2648 69.6639 47.0738 69.7355 46.877 69.7305C46.7895 69.7328 46.7025 69.7162 46.6221 69.6817C46.5416 69.6472 46.4696 69.5957 46.4109 69.5307C46.2899 69.4047 46.2189 69.239 46.2112 69.0645C46.2088 68.977 46.2254 68.89 46.2599 68.8095C46.2944 68.729 46.3459 68.657 46.4109 68.5983C46.5369 68.4773 46.7026 68.4063 46.877 68.3985ZM46.3443 70.9293H47.5429V76.9233H46.3443V70.9293Z" fill="white"/>
        <path d="M50.4054 70.9294V71.662C50.6226 71.394 50.8965 71.1773 51.2073 71.0276C51.5181 70.8779 51.8583 70.7989 52.2032 70.7962C52.5756 70.7895 52.9432 70.8814 53.2686 71.0626C53.5938 71.2415 53.8512 71.5223 54.0011 71.8618C54.1864 72.374 54.2766 72.9157 54.2674 73.4603V76.8569H53.0689V73.4603C53.1167 72.9995 53.0239 72.5351 52.8025 72.1282C52.6852 71.9982 52.5411 71.8952 52.3802 71.8262C52.2193 71.7572 52.0453 71.7239 51.8703 71.7286C51.5795 71.7274 51.2943 71.8079 51.047 71.961C50.7998 72.1141 50.6005 72.3336 50.472 72.5944V76.8569H49.2734V70.8628L50.4054 70.9294Z" fill="white"/>
        <path d="M59.8606 67.7988H61.0592V76.8564H58.5289C58.1316 76.8805 57.734 76.8153 57.3653 76.6654C56.9965 76.5156 56.6661 76.285 56.3981 75.9906C55.8595 75.3615 55.5746 74.5542 55.5991 73.7262C55.591 72.9211 55.8749 72.1403 56.3981 71.5284C56.9702 70.9757 57.7336 70.6655 58.5289 70.6626C58.9874 70.6478 59.4431 70.739 59.8606 70.929V67.7988ZM59.8606 75.8574V72.0612C59.5142 71.8721 59.1231 71.78 58.7287 71.7948C58.4661 71.7873 58.205 71.8371 57.9635 71.9406C57.7221 72.0441 57.506 72.1989 57.3304 72.3942C56.9979 72.837 56.8118 73.3725 56.7977 73.926C56.7722 74.1789 56.8005 74.4342 56.8808 74.6753C56.9612 74.9164 57.0917 75.1377 57.2638 75.3246C57.405 75.5297 57.6195 75.6727 57.8631 75.7242C58.2352 75.8053 58.6143 75.8499 58.995 75.8574H59.8606Z" fill="white"/>
        <path d="M62.3242 76.4569V75.1915C62.6428 75.3948 62.9768 75.5729 63.323 75.7243C63.5935 75.8533 63.889 75.9215 64.1886 75.9241C64.4261 75.9294 64.6592 75.8595 64.8545 75.7243C64.9344 75.6752 65.0007 75.6067 65.0473 75.5252C65.0938 75.4438 65.1191 75.3519 65.1209 75.2581C65.1131 75.0836 65.0421 74.9179 64.9211 74.7919C64.7032 74.5987 64.4559 74.4413 64.1886 74.3257C63.6485 74.0478 63.1544 73.6884 62.7237 73.2601C62.5059 72.9728 62.3888 72.6217 62.3908 72.2611C62.3876 72.0443 62.434 71.8296 62.5263 71.6334C62.6186 71.4372 62.7544 71.2646 62.9235 71.1289C63.3176 70.8089 63.8146 70.6432 64.3218 70.6627C64.9482 70.6833 65.5622 70.8426 66.1196 71.1289V72.3277C65.6191 71.9428 65.0177 71.7115 64.3884 71.6617C64.2032 71.6661 64.0212 71.7116 63.8557 71.7949C63.7864 71.834 63.7304 71.893 63.6948 71.9642C63.6592 72.0354 63.6457 72.1156 63.6559 72.1945C63.6608 72.2711 63.681 72.3459 63.7153 72.4146C63.7496 72.4832 63.7973 72.5443 63.8557 72.5941C64.0494 72.7864 64.2746 72.944 64.5216 73.0603L64.9211 73.3267C65.9199 73.8595 66.386 74.5255 66.386 75.1915C66.392 75.4251 66.3405 75.6567 66.236 75.8657C66.1315 76.0748 65.9772 76.2549 65.7867 76.3903C65.3675 76.7113 64.8495 76.8762 64.3218 76.8565C64.005 76.8826 63.6864 76.8371 63.3896 76.7233C63.0142 76.7632 62.6367 76.6688 62.3242 76.4569Z" fill="white"/>
        <path d="M67.7845 79.0543V78.7879C67.9725 78.659 68.1129 78.4718 68.184 78.2551C68.2608 77.9951 68.3055 77.7268 68.3172 77.4559C68.1236 77.4101 67.9518 77.299 67.8305 77.1413C67.7092 76.9836 67.646 76.789 67.6513 76.5901C67.6456 76.4763 67.6667 76.3628 67.7129 76.2586C67.7592 76.1545 67.8293 76.0627 67.9177 75.9907C67.9929 75.902 68.0876 75.8318 68.1945 75.7859C68.3013 75.7399 68.4174 75.7193 68.5335 75.7258C68.6497 75.7322 68.7627 75.7655 68.8638 75.8231C68.9649 75.8806 69.0513 75.9608 69.1162 76.0573C69.2942 76.3105 69.3874 76.6136 69.3826 76.9231C69.3932 77.3776 69.2527 77.8227 68.983 78.1885C68.698 78.6093 68.2735 78.9159 67.7845 79.0543Z" fill="white"/>
        <path d="M76.2407 76.9234H73.1777V67.8658H75.5748C76.1631 67.8513 76.7493 67.9415 77.3061 68.1322C77.6858 68.3055 78.009 68.5825 78.2383 68.9314C78.4407 69.2997 78.5547 69.7101 78.5712 70.1302C78.5767 70.5597 78.4436 70.9795 78.1917 71.3274C77.9399 71.6753 77.5826 71.9327 77.1729 72.0616C77.7736 72.162 78.3303 72.4404 78.771 72.8608C78.9683 73.063 79.123 73.3028 79.2259 73.5659C79.3289 73.829 79.3779 74.1101 79.3703 74.3926C79.3624 74.835 79.2482 75.269 79.0373 75.658C78.7791 76.0487 78.4072 76.3509 77.972 76.5238C77.4335 76.789 76.8409 76.9258 76.2407 76.9234ZM75.5748 68.998H74.4429V71.7286H75.3085C75.567 71.766 75.8305 71.7499 76.0825 71.6811C76.3345 71.6124 76.5697 71.4925 76.7734 71.329C77.0593 71.0464 77.2261 70.6651 77.2395 70.2634C77.2395 69.3976 76.7068 68.998 75.5748 68.998ZM75.708 72.8608H74.5095V75.7246H75.7746C76.2714 75.7568 76.7695 75.6888 77.2395 75.5248C77.4939 75.4248 77.7123 75.2507 77.8667 75.0251C78.021 74.7995 78.1041 74.5327 78.1051 74.2594C78.1121 74.1256 78.0921 73.9919 78.0463 73.866C78.0006 73.7402 77.93 73.6248 77.8388 73.5268C77.6475 73.3139 77.4226 73.1339 77.1729 72.994C76.6878 72.9196 76.1986 72.8751 75.708 72.8608Z" fill="white"/>
        <path d="M81.7689 70.9293V72.2613L81.8355 72.1281C82.3681 71.1957 82.9674 70.7295 83.5667 70.7295C84.0957 70.7834 84.5897 71.0188 84.965 71.3955L84.3657 72.4611C84.0696 72.1357 83.6693 71.9237 83.2338 71.8617C83.0358 71.8589 82.8404 71.9063 82.6658 71.9995C82.4911 72.0927 82.3429 72.2285 82.235 72.3945C81.9742 72.7649 81.8347 73.2069 81.8355 73.6599V76.7901H80.5703V70.7961L81.7689 70.9293Z" fill="white"/>
        <path d="M86.3634 68.3987C86.5601 68.3937 86.7511 68.4653 86.8961 68.5985C87.017 68.7245 87.088 68.8902 87.0958 69.0647C87.0982 69.1522 87.0815 69.2392 87.047 69.3197C87.0126 69.4002 86.9611 69.4722 86.8961 69.5309C86.7511 69.664 86.5601 69.7357 86.3634 69.7307C86.2759 69.733 86.1889 69.7164 86.1084 69.6819C86.028 69.6474 85.9559 69.5959 85.8973 69.5309C85.7763 69.4049 85.7053 69.2392 85.6975 69.0647C85.6925 68.8679 85.7641 68.6769 85.8973 68.5319C86.0388 68.4486 86.1992 68.4027 86.3634 68.3987ZM85.7641 70.9295H86.9627V76.9235H85.7641V70.9295Z" fill="white"/>
        <path d="M88.6934 67.7988H89.8919V76.8564H88.6934V67.7988Z" fill="white"/>
        <path d="M91.623 67.7988H92.8216V76.8564H91.623V67.7988Z" fill="white"/>
        <path d="M95.086 68.3987C95.2828 68.3937 95.4737 68.4653 95.6187 68.5985C95.7397 68.7245 95.8107 68.8902 95.8184 69.0647C95.8208 69.1522 95.8042 69.2392 95.7697 69.3197C95.7352 69.4002 95.6837 69.4722 95.6187 69.5309C95.4737 69.664 95.2828 69.7357 95.086 69.7307C94.9135 69.7183 94.7512 69.6442 94.6289 69.5219C94.5066 69.3995 94.4325 69.2372 94.4201 69.0647C94.4178 68.9772 94.4344 68.8902 94.4689 68.8097C94.5034 68.7292 94.5549 68.6571 94.6199 68.5985C94.7619 68.5043 94.9199 68.4366 95.086 68.3987ZM94.5533 70.9295H95.7519V76.9235H94.5533V70.9295Z" fill="white"/>
        <path d="M101.145 73.3263V75.8571C101.145 76.0569 101.212 76.1901 101.345 76.1901C101.595 76.148 101.827 76.0321 102.011 75.8571V76.5897C101.803 76.727 101.579 76.8388 101.345 76.9227C101.174 76.9809 100.992 77.0035 100.812 76.9893C100.28 76.9893 100.013 76.7895 99.9466 76.3899C99.5061 76.7802 98.9369 76.9937 98.3485 76.9893C97.957 76.9883 97.5788 76.8465 97.2832 76.5897C97.0163 76.3001 96.873 75.9178 96.8836 75.5241C96.8771 75.339 96.9093 75.1545 96.9781 74.9825C97.0469 74.8105 97.1508 74.6547 97.2832 74.5251C97.6002 74.1985 97.9873 73.948 98.4151 73.7925L99.9466 73.2597V72.9267C99.9673 72.8039 99.9628 72.6781 99.9334 72.557C99.904 72.436 99.8504 72.3222 99.7756 72.2225C99.7009 72.1228 99.6067 72.0394 99.4987 71.9773C99.3907 71.9152 99.2713 71.8756 99.1476 71.8611H98.8812C98.5181 71.8887 98.1647 71.9918 97.8436 72.1638C97.5226 72.3359 97.241 72.573 97.0168 72.8601V71.5947C97.272 71.3247 97.5828 71.1134 97.9277 70.9754C98.2726 70.8374 98.6434 70.776 99.0144 70.7955C99.5747 70.7672 100.124 70.9583 100.546 71.3283C100.676 71.4443 100.788 71.579 100.879 71.7279C101.012 71.8729 101.084 72.0639 101.079 72.2607C101.134 72.6131 101.156 72.9698 101.145 73.3263ZM100.013 75.7239V73.9257L99.2142 74.2587C98.9056 74.3737 98.6143 74.5305 98.3485 74.7249C98.1944 74.8888 98.1005 75.1001 98.0822 75.3243C98.0816 75.5429 98.1635 75.7536 98.3117 75.9142C98.4599 76.0747 98.6634 76.1733 98.8812 76.1901H98.9478C99.3495 76.1767 99.7307 76.0099 100.013 75.7239Z" fill="white"/>
        <path d="M104.275 70.9293V71.6619C104.492 71.3939 104.766 71.1772 105.076 71.0275C105.387 70.8778 105.727 70.7988 106.072 70.7961C106.443 70.7783 106.812 70.8697 107.131 71.0591C107.451 71.2485 107.708 71.5276 107.87 71.8617C108.056 72.3739 108.146 72.9156 108.137 73.4601V76.8567H106.938V73.4601C106.986 72.9994 106.893 72.535 106.672 72.1281C106.554 71.9981 106.41 71.8951 106.249 71.8261C106.088 71.7571 105.914 71.7238 105.739 71.7285C105.449 71.7273 105.163 71.8078 104.916 71.9609C104.669 72.114 104.47 72.3335 104.341 72.5943V76.8567H103.143V70.8627L104.275 70.9293Z" fill="white"/>
        <path d="M108.869 71.8619L111.066 69.6641V70.9295H112.931V71.9951H111.066V74.9255C111.066 75.5915 111.333 75.9245 111.932 75.9245C112.406 75.9254 112.869 75.7864 113.264 75.5249V76.5905C112.821 76.8537 112.314 76.9918 111.799 76.9901C111.314 76.9983 110.841 76.8329 110.467 76.5239C110.344 76.4451 110.251 76.3281 110.201 76.1909C110.134 76.0577 110.068 75.8579 110.001 75.7247C109.944 75.3502 109.921 74.9711 109.935 74.5925V71.9285H108.869V71.8619Z" fill="white"/>
        <path d="M120.256 73.1264L119.257 72.527C118.74 72.2444 118.287 71.8591 117.925 71.3948C117.664 71.0244 117.525 70.5824 117.526 70.1294C117.52 69.8055 117.582 69.484 117.708 69.1857C117.834 68.8874 118.021 68.619 118.258 68.3978C118.517 68.1597 118.822 67.9776 119.154 67.863C119.486 67.7484 119.839 67.7037 120.189 67.7318C120.927 67.7486 121.644 67.98 122.253 68.3978V69.863C121.983 69.5674 121.653 69.3318 121.286 69.1712C120.92 69.0106 120.523 68.9287 120.122 68.9306C119.749 68.9155 119.379 69.008 119.057 69.197C118.932 69.2731 118.829 69.381 118.759 69.5096C118.689 69.6382 118.654 69.7831 118.658 69.9296C118.685 70.2126 118.776 70.4858 118.924 70.7288C119.215 71.0249 119.553 71.2722 119.923 71.4614L120.921 72.0608C121.4 72.2944 121.808 72.6527 122.101 73.098C122.394 73.5433 122.561 74.0592 122.586 74.5916C122.596 74.9351 122.532 75.2767 122.398 75.5934C122.265 75.9102 122.066 76.1948 121.813 76.4281C121.561 76.6615 121.262 76.8382 120.936 76.9465C120.61 77.0547 120.264 77.092 119.923 77.0558C119.038 77.0569 118.175 76.7771 117.459 76.2566V74.5916C117.723 74.9896 118.078 75.3183 118.495 75.5502C118.912 75.782 119.379 75.9101 119.856 75.9236C120.217 75.9256 120.568 75.8085 120.855 75.5906C120.984 75.4869 121.087 75.3548 121.156 75.2046C121.225 75.0544 121.259 74.8902 121.254 74.7248C121.454 74.1254 121.055 73.5926 120.256 73.1264Z" fill="white"/>
        <path d="M126.781 70.9289C127.194 70.9119 127.607 70.9785 127.993 71.1247C128.38 71.2709 128.733 71.4938 129.032 71.7799C129.33 72.066 129.568 72.4095 129.73 72.7897C129.893 73.1699 129.977 73.579 129.977 73.9925C129.979 74.3932 129.897 74.7898 129.737 75.1568C129.576 75.5239 129.341 75.8533 129.045 76.1238C128.413 76.708 127.575 77.0192 126.715 76.9895C126.299 77.0042 125.884 76.9351 125.495 76.7864C125.106 76.6376 124.751 76.4123 124.451 76.1238C124.166 75.8398 123.94 75.5024 123.786 75.131C123.632 74.7596 123.553 74.3614 123.553 73.9592C123.553 73.5571 123.632 73.1589 123.786 72.7875C123.94 72.4161 124.166 72.0787 124.451 71.7947C124.758 71.4972 125.124 71.2666 125.525 71.1176C125.927 70.9686 126.354 70.9044 126.781 70.9289ZM126.715 71.9945C126.2 71.999 125.704 72.1881 125.316 72.5273C125.135 72.7105 124.994 72.9296 124.903 73.1704C124.811 73.4112 124.77 73.6686 124.784 73.9259C124.788 74.4409 124.977 74.9371 125.316 75.3245C125.71 75.6537 126.202 75.8413 126.715 75.8573C127.232 75.8677 127.734 75.6766 128.113 75.3245C128.465 74.9441 128.661 74.4446 128.661 73.9259C128.661 73.4073 128.465 72.9078 128.113 72.5273C127.943 72.3288 127.726 72.176 127.482 72.0829C127.237 71.9899 126.974 71.9595 126.715 71.9945Z" fill="white"/>
        <path d="M131.309 67.7988H132.507V76.8564H131.309V67.7988Z" fill="white"/>
        <path d="M137.966 76.9227V76.1235C137.725 76.4013 137.431 76.6278 137.101 76.7895C136.807 76.9191 136.489 76.9871 136.168 76.9893C135.796 76.9961 135.428 76.9042 135.103 76.7229C134.811 76.5313 134.562 76.2819 134.371 75.9903C134.185 75.4782 134.095 74.9365 134.104 74.3919V70.9287H135.303V74.3253C135.255 74.786 135.348 75.2505 135.569 75.6573C135.815 75.9083 136.15 76.0519 136.501 76.0569C136.784 76.0567 137.061 75.983 137.306 75.8428C137.552 75.7027 137.756 75.501 137.9 75.2577V70.9953H139.098V76.9893L137.966 76.9227Z" fill="white"/>
        <path d="M139.965 71.8619L142.162 69.6641V70.9295H144.027V71.9951H142.162V74.9255C142.162 75.5915 142.429 75.9245 143.028 75.9245C143.501 75.9254 143.965 75.7864 144.36 75.5249V76.5905C143.913 76.8456 143.409 76.9831 142.895 76.9901C142.409 76.9983 141.937 76.8329 141.563 76.5239C141.44 76.4451 141.346 76.3281 141.297 76.1909C141.23 76.0577 141.163 75.8579 141.097 75.7247C141.039 75.3502 141.017 74.9711 141.03 74.5925V71.9285H139.965V71.8619Z" fill="white"/>
        <path d="M145.824 68.3987C146.021 68.3937 146.212 68.4653 146.357 68.5985C146.478 68.7245 146.549 68.8902 146.557 69.0647C146.559 69.1522 146.542 69.2392 146.508 69.3197C146.473 69.4002 146.422 69.4722 146.357 69.5309C146.212 69.664 146.021 69.7357 145.824 69.7307C145.652 69.7183 145.49 69.6442 145.367 69.5219C145.245 69.3995 145.171 69.2372 145.158 69.0647C145.156 68.9772 145.173 68.8902 145.207 68.8097C145.242 68.7292 145.293 68.6571 145.358 68.5985C145.494 68.4926 145.654 68.4238 145.824 68.3987ZM145.225 70.9295H146.424V76.9235H145.225V70.9295Z" fill="white"/>
        <path d="M151.018 70.9293C151.431 70.9122 151.843 70.9788 152.23 71.125C152.616 71.2713 152.969 71.4941 153.268 71.7802C153.566 72.0663 153.804 72.4098 153.967 72.79C154.129 73.1702 154.213 73.5794 154.214 73.9929C154.216 74.3935 154.134 74.7901 153.973 75.1572C153.813 75.5242 153.577 75.8536 153.281 76.1241C152.668 76.6963 151.856 77.0069 151.018 76.9899C150.601 77.0045 150.187 76.9354 149.798 76.7867C149.409 76.638 149.054 76.4126 148.754 76.1241C148.469 75.8401 148.243 75.5027 148.089 75.1313C147.935 74.7599 147.855 74.3617 147.855 73.9596C147.855 73.5574 147.935 73.1592 148.089 72.7878C148.243 72.4164 148.469 72.079 148.754 71.7951C149.045 71.4939 149.398 71.2603 149.789 71.1107C150.181 70.9611 150.6 70.8992 151.018 70.9293ZM150.951 71.9949C150.573 72.0117 150.208 72.1355 149.897 72.3519C149.587 72.5683 149.344 72.8684 149.198 73.2172C149.052 73.566 149.007 73.9493 149.07 74.3224C149.133 74.6956 149.3 75.0432 149.553 75.3249C149.946 75.654 150.438 75.8416 150.951 75.8577C151.468 75.868 151.97 75.677 152.349 75.3249C152.539 75.1445 152.689 74.9275 152.792 74.6871C152.895 74.4467 152.949 74.1878 152.949 73.9263C152.949 73.6647 152.895 73.4059 152.792 73.1655C152.689 72.925 152.539 72.7081 152.349 72.5277C152.179 72.3291 151.962 72.1763 151.718 72.0832C151.474 71.9902 151.21 71.9598 150.951 71.9949Z" fill="white"/>
        <path d="M156.679 70.9293V71.6619C156.896 71.3939 157.17 71.1772 157.481 71.0275C157.792 70.8778 158.132 70.7988 158.477 70.7961C158.848 70.7783 159.216 70.8697 159.535 71.0591C159.855 71.2485 160.112 71.5276 160.275 71.8617C160.46 72.3739 160.55 72.9156 160.541 73.4601V76.8567H159.342V73.4601C159.39 72.9994 159.297 72.535 159.076 72.1281C158.959 71.9981 158.815 71.8951 158.654 71.8261C158.493 71.7571 158.319 71.7238 158.144 71.7285C157.853 71.7273 157.568 71.8078 157.32 71.9609C157.073 72.114 156.874 72.3335 156.745 72.5943V76.8567H155.547V70.8627L156.679 70.9293Z" fill="white"/>
        <path d="M161.871 76.4569V75.1915C162.19 75.3948 162.524 75.5729 162.87 75.7243C163.14 75.8533 163.436 75.9215 163.736 75.9241C163.973 75.9294 164.206 75.8595 164.401 75.7243C164.481 75.6752 164.548 75.6067 164.594 75.5252C164.641 75.4438 164.666 75.3519 164.668 75.2581C164.655 75.0954 164.609 74.9369 164.535 74.7919C164.317 74.5987 164.069 74.4413 163.802 74.3257C163.262 74.0478 162.768 73.6884 162.337 73.2601C162.119 72.9728 162.002 72.6217 162.004 72.2611C162.001 72.0443 162.047 71.8296 162.14 71.6334C162.232 71.4372 162.368 71.2646 162.537 71.1289C162.931 70.8089 163.428 70.6432 163.935 70.6627C164.562 70.6833 165.176 70.8426 165.733 71.1289V72.3277C165.227 71.9535 164.628 71.7234 164.002 71.6617C163.817 71.6661 163.635 71.7116 163.469 71.7949C163.4 71.834 163.344 71.893 163.308 71.9642C163.273 72.0354 163.259 72.1156 163.269 72.1945C163.274 72.2711 163.294 72.3459 163.329 72.4146C163.363 72.4832 163.411 72.5443 163.469 72.5941C163.663 72.7864 163.888 72.944 164.135 73.0603L164.535 73.3267C165.533 73.8595 165.999 74.5255 165.999 75.1915C166.005 75.4251 165.954 75.6567 165.849 75.8657C165.745 76.0748 165.591 76.2549 165.4 76.3903C164.981 76.7113 164.463 76.8762 163.935 76.8565C163.618 76.8826 163.3 76.8371 163.003 76.7233C162.606 76.7792 162.202 76.6841 161.871 76.4569Z" fill="white"/>
        <path d="M8.78906 39.3604V49.5502H18.777C14.4555 47.2936 10.9592 43.7266 8.78906 39.3604Z" fill="white"/>
        <path d="M18.4441 8.52441H8.78906V18.6476C10.8909 14.361 14.2622 10.8263 18.4441 8.52441Z" fill="white"/>
        <path d="M49.7404 18.3154V8.5918H40.2852C44.3437 10.8071 47.6391 14.1961 49.7404 18.3154Z" fill="white"/>
        <path d="M40.0176 49.5502H49.8058V39.6934C47.6205 43.8977 44.2061 47.336 40.0176 49.5502Z" fill="white"/>
        <path d="M7.45678 21.9111L0.332031 29.0373L7.32361 36.0969C5.8686 31.473 5.91522 26.5069 7.45678 21.9111Z" fill="white"/>
        <path d="M22.2402 51.0158L29.2984 58.0088L36.3566 50.9492C31.7721 52.4363 26.8385 52.4595 22.2402 51.0158Z" fill="white"/>
        <path d="M36.0234 6.72661L29.2982 0L22.3066 6.99301C24.6435 6.19644 27.0958 5.79139 29.5646 5.79421C31.7506 5.80048 33.9249 6.11436 36.0234 6.72661Z" fill="white"/>
        <path d="M51.2715 35.9636L58.1965 29.0372L51.5378 22.3105C52.1454 24.4333 52.4591 26.6294 52.47 28.8374C52.4344 31.2598 52.0303 33.6628 51.2715 35.9636Z" fill="white"/>
        <path d="M29.1657 9.45703C25.3334 9.45703 21.5871 10.5937 18.4006 12.7233C15.2142 14.8528 12.7306 17.8797 11.264 21.421C9.79746 24.9624 9.41374 28.8591 10.1614 32.6186C10.909 36.3781 12.7545 39.8314 15.4644 42.5418C18.1742 45.2522 21.6268 47.0981 25.3855 47.8459C29.1442 48.5937 33.0402 48.2099 36.5809 46.743C40.1215 45.2761 43.1477 42.7921 45.2768 39.6049C47.406 36.4178 48.5424 32.6708 48.5424 28.8377C48.5266 23.7025 46.48 18.7821 42.8496 15.1509C39.2192 11.5198 34.2999 9.47284 29.1657 9.45703ZM43.8813 36.3635L35.8244 33.6995L40.8184 40.4927L33.9599 35.4977L36.6234 43.5563L31.6294 36.6965V45.1547L29.0326 37.0961L26.4357 45.1547L26.6354 36.6965L21.708 43.5563L24.3715 35.4977L17.5131 40.4927L22.5071 33.6995L14.4501 36.3635L21.3085 31.4351H12.852L20.909 28.8377L12.852 26.2402L21.3085 26.3068L14.4501 21.3118L22.5071 23.9758L17.5131 17.116L24.3715 22.111L21.708 14.0524L26.6354 20.9788L26.5689 12.5206L29.1657 20.5792L31.7626 12.5206V20.9788L36.69 14.119L34.0265 22.1776L40.8849 17.1826L35.891 23.9758L43.9479 21.3118L37.0895 26.3068H45.546L37.489 28.9043L45.546 31.5017H37.0229L43.8813 36.3635Z" fill="white"/>
    </g>
    <defs>
        <clipPath id="clip0_1887_502">
            <rect width="166" height="80" fill="white"/>
        </clipPath>
    </defs>
</svg>