<svg xmlns="http://www.w3.org/2000/svg" width="147" height="88" viewBox="0 0 147 88" fill="none">
    <g clip-path="url(#clip0_1887_484)">
        <path d="M17.2257 42.0294H9.40125V57.4838C9.40125 58.7987 9.72667 59.6895 10.3917 60.142C11.0567 60.5944 11.9056 60.8207 12.9668 60.8207C13.7167 60.8207 14.5515 60.7358 15.457 60.5662C16.3626 60.3965 17.1549 60.1985 17.8341 59.9723L18.6264 63.7617C17.8765 64.0586 16.9003 64.3273 15.74 64.5535C14.5657 64.7797 13.3347 64.8928 12.0613 64.8928C9.41539 64.8928 7.49112 64.3131 6.28845 63.1678C5.08578 62.0225 4.47737 60.3399 4.47737 58.1625V42.0294H0.515625V38.2966H4.47737V29.7988H9.40125V38.2966H17.2257V42.0294Z" fill="white"/>
        <path d="M83.6278 0.529751L77.1758 11.6973L81.391 14.1292L87.8429 2.96173L83.6278 0.529751Z" fill="white"/>
        <path d="M95.2652 9.14783L85.6172 17.7109L88.8493 21.3476L98.4974 12.7845L95.2652 9.14783Z" fill="white"/>
        <path d="M91.2126 84.1082C92.0898 84.1082 92.8397 84.0233 93.4481 83.8678C94.0566 83.7123 94.5659 83.5002 94.9763 83.2457L95.8535 86.4553C95.4573 86.6957 94.8206 86.9219 93.9575 87.1623C93.0803 87.4026 92.0049 87.5158 90.7315 87.5158C89.2742 87.5158 87.9442 87.2895 86.7273 86.8371C85.5105 86.3846 84.4635 85.7483 83.6004 84.9141C82.7373 84.0799 82.0581 83.076 81.5771 81.8883C81.096 80.7006 80.8555 79.3715 80.8555 77.901C80.8555 76.4305 81.0819 75.1579 81.5488 73.9702C82.0157 72.7825 82.6666 71.7786 83.5155 70.9444C84.3644 70.1102 85.4115 69.4597 86.6424 69.0073C87.8734 68.5407 89.2459 68.3145 90.774 68.3145C92.0757 68.3145 93.1227 68.4417 93.9434 68.6821C94.764 68.9225 95.4007 69.177 95.8676 69.4315L94.8631 72.6977C94.4103 72.4432 93.8726 72.2169 93.2642 72.019C92.6417 71.821 91.9625 71.722 91.2126 71.722C90.4202 71.722 89.6845 71.8352 89.0053 72.0614C88.312 72.2876 87.7178 72.6411 87.2084 73.136C86.699 73.6309 86.2887 74.253 86.0057 75.0307C85.7086 75.8083 85.5671 76.7557 85.5671 77.8727C85.5671 78.919 85.7086 79.8239 85.9916 80.6157C86.2746 81.4075 86.6707 82.058 87.1801 82.567C87.6895 83.0901 88.2837 83.4719 88.9629 83.7264C89.642 83.9809 90.3778 84.1082 91.1843 84.1082H91.2126Z" fill="white"/>
        <path d="M104.456 68.6538H109.224L115.902 87.1906H111.162L109.903 83.2174H103.663L102.404 87.1906H97.7207L104.47 68.6538H104.456ZM104.625 79.9795H108.87L108.163 77.7454C107.922 77.0243 107.682 76.2467 107.441 75.4266C107.201 74.6065 106.988 73.843 106.804 73.1643H106.748C106.55 73.8571 106.323 74.5924 106.069 75.3983C105.814 76.2043 105.573 76.9819 105.333 77.7454L104.625 79.9795Z" fill="white"/>
        <path d="M131.042 68.6538V72.0614H123.444V76.586H130.391V79.9653H123.444V87.1764H118.973V68.6396H131.042V68.6538Z" fill="white"/>
        <path d="M134.311 68.6538H146.677V72.0614H138.782V75.8507H145.913V79.23H138.782V83.7547H146.762V87.1622H134.311V68.6255V68.6538Z" fill="white"/>
        <path d="M18.6544 55.6035H15.0605V63.7195H18.6544V55.6035Z" fill="white"/>
        <path d="M114.246 59.9585C113.341 60.2272 112.279 60.3544 111.077 60.3544C109.945 60.3544 108.827 60.1848 107.738 59.8454C106.648 59.5061 105.658 58.9546 104.795 58.177C103.931 57.3993 103.224 56.3813 102.7 55.0946C102.177 53.8079 101.908 52.2101 101.908 50.2872C101.908 47.1907 102.757 44.787 104.455 43.0619C106.153 41.3511 108.388 40.4886 111.147 40.4886C112.251 40.4886 113.298 40.6441 114.317 40.9269V46.314H117.911V38.198H117.868V38.1697C116.439 37.5334 115.166 37.1234 114.048 36.9537C112.93 36.7841 111.784 36.6992 110.624 36.6992C108.586 36.6992 106.719 37.0244 105.021 37.6607C103.323 38.297 101.866 39.216 100.663 40.4037C99.4603 41.5915 98.5123 43.0337 97.8332 44.7304C97.154 46.4271 96.8145 48.3359 96.8145 50.4427C96.8145 52.7474 97.1682 54.7552 97.8898 56.4802C98.6114 58.2052 99.6018 59.6333 100.861 60.7786C102.12 61.9239 103.606 62.7864 105.276 63.352C106.959 63.9176 108.756 64.2004 110.681 64.2004C113.51 64.2004 115.944 63.6913 117.996 62.6733L116.92 58.9405C116.057 59.3505 115.166 59.6899 114.26 59.9585H114.246Z" fill="white"/>
        <path d="M145.784 41.8882C145.431 40.8278 144.893 39.9228 144.2 39.1452C143.506 38.3675 142.601 37.7737 141.511 37.3353C140.422 36.897 139.134 36.6849 137.663 36.6849C135.852 36.6849 134.182 37.0384 132.682 37.7595C131.168 38.4806 129.796 39.3855 128.551 40.4743V24.214H131.692V20.6226H123.57V24.214V63.6912H128.551V44.4333C129.838 43.2597 131.126 42.3548 132.428 41.7185C133.729 41.0823 135.031 40.7571 136.304 40.7571C138.002 40.7571 139.276 41.2237 140.096 42.1427C140.931 43.0618 141.342 44.5464 141.342 46.5825V63.677H146.322V45.3241C146.322 44.0798 146.138 42.9204 145.784 41.8741V41.8882Z" fill="white"/>
        <path d="M52.0877 70.4355C29.1945 67.6076 23.0113 41.4921 33.4392 42.185C37.6839 42.4678 40.5279 43.5423 42.4522 44.8008C42.4663 43.4434 42.5371 42.0577 42.6786 40.6296C43.386 33.4327 77.1174 31.9905 90.177 37.1655C86.0596 22.3757 72.4907 11.5166 56.3749 11.5166C36.9906 11.5166 21.2852 27.2113 21.2852 46.5823C21.2852 62.4609 31.8545 75.8792 46.3432 80.1917V80.2624C60.8177 84.4759 74.4715 79.0605 74.4715 79.0605V76.9396C74.1744 77.0245 73.8631 77.1093 73.5377 77.18C73.9763 76.9396 74.4149 76.6851 74.8394 76.4165C67.0574 78.8343 58.4831 76.5437 52.116 70.4355H52.0877Z" fill="white"/>
        <path d="M34.9812 53.27C37.0187 58.1623 41.5181 60.3822 45.7062 61.3719C43.8103 57.2291 42.6359 52.3651 42.452 46.8508C37.0046 43.7542 31.4723 44.8712 34.9812 53.27Z" fill="white"/>
        <path d="M95.1848 42.779C94.0529 48.1096 64.835 49.8629 55.6098 42.4821C55.6098 42.4821 72.334 47.5299 81.9696 44.6171C103.575 38.0706 41.3051 32.839 48.0259 44.8151C50.1624 48.6327 71.6832 54.444 91.4211 48.3217C96.4441 46.5967 95.1848 42.7932 95.1848 42.779Z" fill="white"/>
    </g>
    <defs>
        <clipPath id="clip0_1887_484">
            <rect width="146.259" height="86.9856" fill="white" transform="translate(0.515625 0.530273)"/>
        </clipPath>
    </defs>
</svg>