<svg xmlns="http://www.w3.org/2000/svg" width="16" height="14" viewBox="0 0 16 14" fill="none">
    <path d="M15.8201 2.16941C15.38 2.81309 14.848 3.36153 14.224 3.81473C14.2306 3.90669 14.2339 4.04462 14.2339 4.22853C14.2339 5.08239 14.1091 5.9346 13.8595 6.78518C13.6099 7.63575 13.2306 8.45184 12.7215 9.23345C12.2125 10.0151 11.6066 10.7064 10.9038 11.3073C10.201 11.9083 9.35372 12.3878 8.36193 12.7458C7.37014 13.1037 6.30939 13.2827 5.17967 13.2827C3.3997 13.2827 1.7708 12.8065 0.292969 11.8541C0.522854 11.8804 0.779011 11.8936 1.06144 11.8936C2.53927 11.8936 3.85619 11.4404 5.01218 10.5339C4.32253 10.5208 3.70512 10.309 3.15996 9.89848C2.61481 9.48797 2.24042 8.96416 2.03681 8.32705C2.25356 8.35989 2.45389 8.37631 2.6378 8.37631C2.92023 8.37631 3.19937 8.34019 3.47523 8.26794C2.7396 8.11687 2.13041 7.7507 1.64765 7.16941C1.16489 6.58813 0.923511 5.91326 0.923511 5.14478V5.10538C1.37014 5.35496 1.84962 5.48961 2.36193 5.50932C1.92844 5.22032 1.58361 4.84265 1.32745 4.37631C1.07129 3.90997 0.943215 3.40423 0.943215 2.85907C0.943215 2.28107 1.08771 1.74577 1.37671 1.25316C2.17146 2.23181 3.13862 3.01506 4.27819 3.60291C5.41776 4.19076 6.6378 4.51753 7.93829 4.58321C7.88574 4.33362 7.85947 4.0906 7.85947 3.85414C7.85947 2.97401 8.16982 2.2236 8.79051 1.60291C9.41119 0.982223 10.1616 0.671878 11.0417 0.671878C11.9613 0.671878 12.7363 1.00685 13.3669 1.6768C14.0828 1.53887 14.756 1.28271 15.3866 0.908331C15.1435 1.66367 14.6772 2.24823 13.9875 2.66203C14.5984 2.59634 15.2092 2.43214 15.8201 2.16941Z" fill="#626D79"/>
</svg>